<svg xmlns="http://www.w3.org/2000/svg" width="31" height="29.784" viewBox="0 0 31 29.784"><defs><style>.a{fill:#fff;}</style></defs><g transform="translate(0.106)"><rect class="a" width="31" height="2" rx="1" transform="translate(-0.106)"/><rect class="a" width="30.691" height="2.455" rx="1.228" transform="translate(-0.027 8.003)"/><rect class="a" width="30.691" height="2.455" rx="1.228" transform="translate(0.021 16.007)"/><g transform="translate(0.503 22.336)"><path class="a" d="M12.375,189.241H11.322q0-1.25-.174-3.615t-.185-2.836h-.056q-.561,1.821-1.421,3.954a12.72,12.72,0,0,0-.86,2.5H7.869a13.139,13.139,0,0,0-.8-2.542q-.8-2.149-1.014-2.878t-.291-1.031H5.706q-.017.768-.221,3.1t-.2,3.352H4.316q0-.056.381-3.085a39.942,39.942,0,0,0,.381-4.212H6.552a13.522,13.522,0,0,0,.9,3.082,14.41,14.41,0,0,1,.9,2.987H8.4a13.3,13.3,0,0,1,1.009-3,12.579,12.579,0,0,0,1.009-3.074h1.44q0,1.183.258,4.192T12.375,189.241Z" transform="translate(-4.316 -181.944)"/><path class="a" d="M90.677,188.395l-.034.846H86.126q.078-1.737.078-3.834,0-1.973-.078-3.464h4.237l-.045.835q-1.541-.067-3.267-.067.034.869.034,2.348,1.49,0,2.656-.067v.835q-1.244-.05-2.656-.05,0,1.44.05,2.7Q89,188.479,90.677,188.395Z" transform="translate(-76.083 -181.944)"/><path class="a" d="M140.419,189.241h-.785q0-.1-1.838-2.684a23.855,23.855,0,0,1-2.191-3.43h-.056q.1,1.351.1,2.315,0,1.883.084,3.8h-.941q.1-1.821.1-3.834,0-1.978-.1-3.464h1.076a21.469,21.469,0,0,0,1.693,2.556,17.984,17.984,0,0,1,2.018,3.284h.056q-.1-1.367-.1-2.32,0-2.074-.079-3.52h.958q-.1,1.485-.1,3.464Q140.324,187.42,140.419,189.241Z" transform="translate(-118.774 -181.944)"/><path class="a" d="M202.762,181.944q-.022,1.059-.034,1.978t-.011,1.715q0,3.755-2.965,3.755a3.562,3.562,0,0,1-1.325-.221,2.137,2.137,0,0,1-.908-.678,2.96,2.96,0,0,1-.521-1.152,7.163,7.163,0,0,1-.165-1.642q0-.829-.011-1.763t-.034-1.992h1.065q-.067,2.135-.067,3.346a10.742,10.742,0,0,0,.1,1.589,2.843,2.843,0,0,0,.339,1.023,1.4,1.4,0,0,0,.614.58,2.25,2.25,0,0,0,.942.171,2.369,2.369,0,0,0,.975-.171,1.367,1.367,0,0,0,.611-.566,2.888,2.888,0,0,0,.336-1.014,10.482,10.482,0,0,0,.1-1.623q0-.594-.02-1.421t-.059-1.914Z" transform="translate(-173.159 -181.944)"/></g></g></svg>